<svg xmlns="http://www.w3.org/2000/svg" viewBox="0 0 128 128" role="img" aria-hidden="true">
    <defs>
        <linearGradient id="avatarGradient" x1="0%" y1="0%" x2="100%" y2="100%">
            <stop offset="0%" stop-color="#4f46e5" />
            <stop offset="100%" stop-color="#312e81" />
        </linearGradient>
    </defs>
    <circle cx="64" cy="64" r="60" fill="url(#avatarGradient)" />
    <path d="M64 86c-2.8 0-5-2.2-5-5v-2c0-9.4 8.1-12.6 12.6-14.4 3.6-1.4 5.4-3.1 5.4-6.4 0-5.5-4.5-10-10-10s-10 4.5-10 10c0 2.8-2.2 5-5 5s-5-2.2-5-5c0-11 9-20 20-20s20 9 20 20c0 9.8-7.1 14.1-12.1 16-4.3 1.6-5.9 2.8-5.9 4.8v1c0 2.8-2.2 5-5 5z" fill="#ede9fe" />
    <circle cx="64" cy="98" r="6" fill="#ede9fe" />
</svg>
